<svg width="60" height="60" viewBox="0 0 60 60" fill="none" xmlns="http://www.w3.org/2000/svg">
<path fill-rule="evenodd" clip-rule="evenodd" d="M30 60C46.5686 60 60 46.5686 60 30C60 13.4314 46.5686 0 30 0C13.4314 0 0 13.4314 0 30C0 46.5686 13.4314 60 30 60ZM30.418 28.3162C28.0745 28.3162 16 21.4692 16 21.4692V20.3999C16 19.0752 17.0752 18 18.4023 18H42.4336C43.762 18 44.8372 19.0752 44.8372 20.3999L44.8181 21.6001C44.8181 21.6001 32.8745 28.3162 30.418 28.3162ZM44.8181 25.2C44.8181 25.2 32.9873 31.6162 30.418 31.6162C28.0745 31.6162 16.0181 25.2 16.0193 25.2L16 39.5999C16 40.9248 17.0764 42 18.4023 42H42.4336C43.762 42 44.8372 40.9248 44.8372 39.5999L44.8181 25.2Z" fill="white"/>
</svg>
