<svg width="60" height="60" viewBox="0 0 60 60" fill="none" xmlns="http://www.w3.org/2000/svg">
<path fill-rule="evenodd" clip-rule="evenodd" d="M30.0541 0.224976C13.5184 0.224976 0.109619 13.8598 0.109619 30.6807C0.109619 44.1371 8.68962 55.5533 20.5875 59.5804C22.084 59.8623 22.6334 58.9197 22.6334 58.1153C22.6334 57.3891 22.6057 54.9899 22.5928 52.445C14.2622 54.2874 12.5043 48.8516 12.5043 48.8516C11.1422 45.3313 9.17954 44.3953 9.17954 44.3953C6.46268 42.505 9.38433 42.5438 9.38433 42.5438C12.3913 42.7582 13.9746 45.6823 13.9746 45.6823C16.6453 50.3384 20.9797 48.9923 22.6885 48.2141C22.9572 46.2462 23.7333 44.9016 24.5896 44.1415C17.9385 43.3714 10.9468 40.76 10.9468 29.09C10.9468 25.7649 12.1166 23.048 14.0321 20.9151C13.7212 20.1475 12.6962 17.0503 14.3222 12.8552C14.3222 12.8552 16.8367 12.0366 22.559 15.9771C24.9476 15.3023 27.5093 14.9638 30.0541 14.9522C32.5989 14.9638 35.1625 15.3023 37.5556 15.9771C43.2709 12.0366 45.782 12.8552 45.782 12.8552C47.4119 17.0503 46.3865 20.1475 46.0756 20.9151C47.9956 23.048 49.1574 25.7649 49.1574 29.09C49.1574 40.7876 42.1523 43.3634 35.4843 44.1173C36.5584 45.0625 37.5154 46.916 37.5154 49.7574C37.5154 53.8319 37.4807 57.1117 37.4807 58.1153C37.4807 58.9258 38.0197 59.8755 39.5376 59.5764C51.429 55.5447 59.9981 44.1325 59.9981 30.6807C59.9981 13.8598 46.5913 0.224976 30.0541 0.224976Z" fill="white"/>
<path fill-rule="evenodd" clip-rule="evenodd" d="M11.4511 43.9528C11.3852 44.1047 11.1511 44.1495 10.9379 44.0457C10.7207 43.9463 10.5987 43.74 10.6691 43.5883C10.7336 43.4324 10.9681 43.3895 11.1848 43.4929C11.4025 43.5927 11.5265 43.801 11.4511 43.9528Z" fill="white"/>
<path fill-rule="evenodd" clip-rule="evenodd" d="M12.664 45.3288C12.5212 45.4634 12.242 45.4009 12.0526 45.188C11.8567 44.9757 11.82 44.6917 11.9648 44.5551C12.1121 44.4204 12.3828 44.4835 12.5792 44.6958C12.7751 44.9106 12.8132 45.1926 12.664 45.3288Z" fill="white"/>
<path fill-rule="evenodd" clip-rule="evenodd" d="M13.8446 47.0828C13.6611 47.2124 13.3611 47.0908 13.1757 46.82C12.9922 46.5492 12.9922 46.2244 13.1797 46.0943C13.3656 45.9641 13.6611 46.0812 13.8491 46.35C14.032 46.6248 14.032 46.9502 13.8446 47.0828Z" fill="white"/>
<path fill-rule="evenodd" clip-rule="evenodd" d="M15.4622 48.7774C15.2981 48.9615 14.9485 48.9121 14.6926 48.6609C14.4308 48.4153 14.3579 48.0668 14.5225 47.8827C14.6886 47.6982 15.0402 47.75 15.2981 47.9992C15.5579 48.2444 15.6372 48.5953 15.4622 48.7774Z" fill="white"/>
<path fill-rule="evenodd" clip-rule="evenodd" d="M17.6935 49.7614C17.6211 50 17.2844 50.1084 16.9452 50.007C16.6065 49.9027 16.3849 49.6232 16.4533 49.3822C16.5237 49.1421 16.8619 49.0291 17.2036 49.1375C17.5418 49.2414 17.7639 49.5189 17.6935 49.7614Z" fill="white"/>
<path fill-rule="evenodd" clip-rule="evenodd" d="M20.1442 49.9439C20.1526 50.1951 19.865 50.4033 19.509 50.4074C19.151 50.4159 18.8614 50.2128 18.8574 49.9656C18.8574 49.7119 19.1386 49.5057 19.4966 49.4996C19.8526 49.4926 20.1442 49.6942 20.1442 49.9439Z" fill="white"/>
<path fill-rule="evenodd" clip-rule="evenodd" d="M22.4247 49.549C22.4673 49.7942 22.2199 50.0458 21.8663 50.1124C21.5187 50.1775 21.1969 50.0262 21.1528 49.783C21.1096 49.5319 21.3615 49.2803 21.7086 49.2152C22.0627 49.1526 22.3795 49.2999 22.4247 49.549Z" fill="white"/>
</svg>
